<?xml version="1.0" encoding="UTF-8"?>
<svg version="1.1" xmlns="http://www.w3.org/2000/svg" width="1200" height="1200">
<path d="M0 0 C1.27617188 0.02900391 1.27617188 0.02900391 2.578125 0.05859375 C6.65956759 0.26838753 9.04666965 0.60705226 12.4765625 2.9375 C16.85500484 9.17877054 18.80521695 15.67343533 19.73657227 23.17456055 C21.52549999 37.31043966 27.21664932 49.55882699 33.07585144 62.36238098 C35.92858554 68.61066019 38.55295697 74.94374478 41.125 81.3125 C41.56457031 82.39587646 42.00414062 83.47925293 42.45703125 84.59545898 C44.95817345 90.78732204 47.41462904 96.99599085 49.84765625 103.21484375 C50.12179855 103.91555496 50.39594086 104.61626617 50.6783905 105.33821106 C50.95379166 106.04217514 51.22919281 106.74613922 51.51293945 107.47143555 C55.84553066 118.54389373 60.1939403 129.59496364 64.9375 140.5 C65.297229 141.32725586 65.65695801 142.15451172 66.02758789 143.00683594 C68.52176988 148.66263338 71.14559827 154.25526445 73.78198242 159.84570312 C74.15221275 160.63156799 74.52244308 161.41743286 74.90389252 162.22711182 C75.81058676 164.15156885 76.71774627 166.07580666 77.625 168 C77.58741577 166.76101456 77.54983154 165.52202911 77.5111084 164.24549866 C77.03545341 148.5182256 76.57471693 132.79053583 76.125 117.0625 C76.08936825 115.81667271 76.0537365 114.57084541 76.01702499 113.28726578 C74.96038787 76.18126198 74.12044596 39.12224027 74.625 2 C78.22382006 0.80039331 81.20637982 0.83113271 85 0.8125 C86.30710937 0.79832031 87.61421875 0.78414063 88.9609375 0.76953125 C92.41359618 0.98670274 94.50534955 1.64609451 97.625 3 C100.19521613 19.68186506 99.34421086 36.10901812 98.49304199 52.87884521 C98.06853012 61.28944357 97.71037335 69.70292198 97.3671875 78.1171875 C97.33196487 78.97869038 97.29674225 79.84019325 97.26045227 80.72780228 C96.52631498 99.01765718 96.33385777 117.29501982 96.3705368 135.59815979 C96.37491763 137.83297854 96.37699224 140.06779012 96.37872314 142.3026123 C96.39807771 158.47518282 96.64664206 174.62883464 97.28192139 190.7897644 C97.59391357 198.86415363 97.67839031 206.91978788 97.625 215 C94.72888456 214.85865273 91.8331919 214.7120847 88.9375 214.5625 C88.12087891 214.52318359 87.30425781 214.48386719 86.46289062 214.44335938 C85.66689453 214.40146484 84.87089844 214.35957031 84.05078125 214.31640625 C82.95890503 214.26141968 82.95890503 214.26141968 81.8449707 214.20532227 C79.38936268 213.9782062 77.0340356 213.52032206 74.625 213 C74.14256836 211.52128418 74.14256836 211.52128418 73.65039062 210.01269531 C64.1061234 180.81571482 53.43252693 153.15324326 39.44628906 125.73632812 C28.17800768 103.57188611 20.25965023 80.59485981 12.625 57 C12.04291845 77.6259793 11.55821895 98.24943854 11.34375 118.8828125 C11.33420288 119.79352257 11.32465576 120.70423264 11.31481934 121.64253998 C11.23790291 129.07555061 11.16771368 136.5086216 11.09893799 143.94171143 C11.038615 150.44295442 10.97519366 156.94415485 10.90625 163.4453125 C10.89686401 164.33363014 10.88747803 165.22194778 10.87780762 166.13718414 C10.70261207 182.10174052 10.27019203 198.04746264 9.625 214 C7.41379915 213.85955529 5.20292089 213.71402665 2.9921875 213.56640625 C1.76097168 213.48592041 0.52975586 213.40543457 -0.73876953 213.32250977 C-5.37793093 212.91104661 -9.84850742 212.07425976 -14.375 211 C-14.36976318 210.31075439 -14.36452637 209.62150879 -14.35913086 208.91137695 C-14.32267506 203.38624603 -14.30236855 197.86119144 -14.30859375 192.3359375 C-14.30915771 191.28196777 -14.30972168 190.22799805 -14.31030273 189.14208984 C-14.3976874 184.89816282 -14.76249006 180.69496402 -15.140625 176.46875 C-16.09543136 162.33761582 -15.41663035 148.3405821 -14.08786011 134.26312256 C-11.34570324 105.1085894 -11.9332563 76.1743059 -13.921875 46.9921875 C-14.71156215 35.27434951 -14.58269201 23.83118279 -13.5625 12.125 C-13.49256836 11.26092529 -13.42263672 10.39685059 -13.35058594 9.5065918 C-13.26969727 8.70261963 -13.18880859 7.89864746 -13.10546875 7.0703125 C-13.03739014 6.35633301 -12.96931152 5.64235352 -12.89916992 4.90673828 C-11.10841929 -1.60735693 -5.47275341 -0.32047655 0 0 Z " fill="#81549D" transform="translate(74.375,460)"/>
<path d="M0 0 C3.41282938 2.03457136 3.82226864 2.22688079 7.4375 1.4375 C9.76520009 0.71690853 11.21835794 -0.03680321 13.12109375 -1.58203125 C15.78642404 -3.43553616 17.92591618 -3.7738005 21.125 -4.25 C22.13304687 -4.40855469 23.14109375 -4.56710937 24.1796875 -4.73046875 C27.23003055 -5.06034045 30.18454645 -5.12197895 33.25 -5.0625 C34.68213575 -0.3353923 35.71775487 4.25462582 36.46875 9.1484375 C36.68073336 10.48832181 36.89298029 11.82816445 37.10546875 13.16796875 C37.43138636 15.25453384 37.75441636 17.3414636 38.07275391 19.42919922 C38.38449691 21.46191496 38.70711459 23.49266664 39.03125 25.5234375 C39.21751953 26.7304834 39.40378906 27.9375293 39.59570312 29.18115234 C39.81162109 30.09074707 40.02753906 31.0003418 40.25 31.9375 C43.54496255 33.58498127 46.68926216 33.4532309 50.25 32.9375 C52.39465366 32.15613574 54.51898128 31.31770145 56.625 30.4375 C62.32568046 28.11891502 67.12129478 26.76061095 73.25 27.9375 C77.41685498 29.83152499 78.87273112 31.27099165 81.125 35.25 C82.77967306 40.6736506 82.79590794 44.29977618 81 49.6875 C78.45108696 54.42119565 78.45108696 54.42119565 75.25 55.9375 C70.79154661 56.96770574 67.23564371 57.22423271 62.8125 55.9375 C58.20127763 54.64312179 53.87414036 54.5897606 49.25 55.9375 C46.95762381 57.52642535 46.95762381 57.52642535 45.25 59.9375 C45.06437454 62.95652114 45.06437454 62.95652114 45.734375 66.234375 C45.92773438 67.43964844 46.12109375 68.64492188 46.3203125 69.88671875 C46.54460937 71.14097656 46.76890625 72.39523437 47 73.6875 C47.31324219 75.59208984 47.31324219 75.59208984 47.6328125 77.53515625 C48.15188792 80.6732031 48.6916169 83.80624965 49.25 86.9375 C47.65345581 87.18657104 47.65345581 87.18657104 46.0246582 87.44067383 C42.06260812 88.06169165 38.10292831 88.69683087 34.14379883 89.33618164 C32.43249565 89.61052751 30.72057969 89.88107982 29.00805664 90.14770508 C26.54140658 90.53242511 24.07730865 90.93089812 21.61328125 91.33203125 C20.85163162 91.44779007 20.08998199 91.56354889 19.30525208 91.68281555 C15.04516022 92.39186307 11.6765432 93.24647813 8.25 95.9375 C6.68378691 101.2626245 7.30756938 105.84243329 9.25 110.9375 C9.95125 112.030625 10.6525 113.12375 11.375 114.25 C14.17952572 118.83634846 14.03059005 123.73893124 13.25 128.9375 C11.19117734 132.8904395 8.51483614 134.91823873 4.30859375 136.4921875 C-0.41416205 137.5138083 -5.25092826 137.15566677 -9.6171875 135.02734375 C-13.8222676 131.94152627 -15.75740294 127.90800499 -16.75 122.9375 C-17.09341077 119.09048178 -17.31128523 115.28603822 -17.44140625 111.42578125 C-17.75320065 106.87835888 -17.75320065 106.87835888 -19.75 102.9375 C-27.34152005 97.78709049 -36.91063095 100.76064577 -45.25 102.3125 C-47.46081985 102.70547059 -49.67255481 103.09225049 -51.88537598 103.4737854 C-53.87286468 103.81926979 -55.85743246 104.181434 -57.84179688 104.54443359 C-59.28135742 104.73900146 -59.28135742 104.73900146 -60.75 104.9375 C-62.64957673 103.03792327 -62.5271716 99.81556284 -62.94140625 97.26953125 C-63.05097153 96.59709885 -63.1605368 95.92466644 -63.27342224 95.2318573 C-63.50487529 93.8039074 -63.73422959 92.37561601 -63.96166992 90.94702148 C-64.30844071 88.77542071 -64.66448086 86.60548587 -65.02148438 84.43554688 C-65.24535846 83.04696626 -65.4686829 81.6582969 -65.69140625 80.26953125 C-65.89451416 79.00858643 -66.09762207 77.7476416 -66.30688477 76.44848633 C-66.71320299 73.22905799 -66.83433008 70.17720638 -66.75 66.9375 C-65.9765625 66.77894531 -65.203125 66.62039063 -64.40625 66.45703125 C-54.18422961 64.16719748 -46.78365711 60.74981499 -40.75 51.9375 C-37.62587129 45.83124843 -37.73386873 37.93509428 -39.40234375 31.37109375 C-42.17812641 24.33037463 -46.64263862 20.54666929 -53.25 17.125 C-59.42539866 15.04202823 -66.28434398 15.18164587 -72.75 14.9375 C-73.28195312 12.0433144 -73.80086335 9.14778485 -74.3125 6.25 C-74.46396484 5.43337891 -74.61542969 4.61675781 -74.77148438 3.77539062 C-75.50603004 -0.44397633 -76.03893273 -3.87133464 -74.75 -8.0625 C-48.05020586 -16.53144197 -23.03306717 -19.11587888 0 0 Z " fill="#81549D" transform="translate(912.75,460.0625)"/>
<path d="M0 0 C1.52428344 2.10753016 1.55733805 3.22409653 1.46484375 5.8046875 C1.44164062 6.86042969 1.44164062 6.86042969 1.41796875 7.9375 C1.25669307 10.11472163 1.01078588 12.28564266 0.7355957 14.45141602 C0.00692108 20.97487453 -0.12755248 27.51703246 -0.3203125 34.07421875 C-0.36349756 35.47076609 -0.4069136 36.8673063 -0.45054626 38.26383972 C-0.54104152 41.18616343 -0.62900281 44.10854901 -0.71508789 47.03100586 C-0.82374717 50.71434404 -0.93832534 54.39746879 -1.05463982 58.08057213 C-1.65979586 77.18700604 -1.65979586 77.18700604 -1.890625 96.30078125 C-1.89336929 97.06654984 -1.89611359 97.83231842 -1.89894104 98.62129211 C-1.86371921 108.57035971 -0.75668607 117.01960329 4.21484375 125.6796875 C4.54484375 126.6696875 4.87484375 127.6596875 5.21484375 128.6796875 C7.00978068 129.83051147 7.00978068 129.83051147 9.21484375 130.6796875 C9.96121094 130.99550781 10.70757812 131.31132813 11.4765625 131.63671875 C17.0232433 133.59279459 20.70768352 134.05112339 26.19140625 131.7421875 C35.03002277 127.10106068 40.06285316 118.40938352 43.46484375 109.2421875 C48.85723037 90.39708316 48.57316769 71.33343668 48.36254883 51.93261719 C48.30240754 46.13059927 48.26899987 40.32837975 48.23678207 34.52615166 C48.22313012 32.53399313 48.20096667 30.54189854 48.17849731 28.54981995 C47.99749635 5.62816794 47.99749635 5.62816794 52.21484375 -0.3203125 C57.00700031 -3.78363962 63.60857072 -2.75961001 69.21484375 -2.3203125 C73.37534153 -1.02912353 74.64856948 -0.17948725 77.02734375 3.4296875 C79.1714739 9.29783318 79.34215876 15.14358119 79.36010742 21.34423828 C79.36341788 22.08042955 79.36672834 22.81662083 79.37013912 23.57512093 C79.37949857 26.00842928 79.38145669 28.44167492 79.3828125 30.875 C79.38676046 32.60512333 79.39090494 34.33524623 79.39523315 36.06536865 C79.40456937 40.68981617 79.4056202 45.31422721 79.40352249 49.93868256 C79.40234415 52.80370705 79.40287433 55.66872785 79.40353394 58.53375244 C79.40178272 93.93953265 79.01867669 129.36573242 76.21484375 164.6796875 C70.59227214 166.5966448 65.6911499 166.92858674 59.77734375 166.8046875 C58.95041016 166.79566406 58.12347656 166.78664063 57.27148438 166.77734375 C55.25247667 166.75400262 53.23362019 166.71814038 51.21484375 166.6796875 C49.90122677 164.05245354 50.00230466 161.95358189 49.8984375 159.015625 C49.85654297 157.89414062 49.81464844 156.77265625 49.77148438 155.6171875 C49.73216797 154.4415625 49.69285156 153.2659375 49.65234375 152.0546875 C49.58756836 150.27964844 49.58756836 150.27964844 49.52148438 148.46875 C49.41516949 145.53918422 49.31313733 142.60953162 49.21484375 139.6796875 C44.54530024 143.59150447 40.38535756 147.40596329 36.71484375 152.3046875 C32.29260032 157.87457196 27.96815917 161.42858236 21.21484375 163.6796875 C8.89528392 164.66849428 -1.19484584 162.79419913 -10.78515625 154.7109375 C-28.63689019 136.58027022 -26.97448947 101.50693553 -26.91552734 77.9152832 C-26.91018665 75.3816117 -26.91549482 72.84811914 -26.921875 70.31445312 C-26.92468064 62.76230091 -26.81523589 55.2651283 -26.28125 47.73046875 C-25.61249902 38.21330634 -25.67574496 28.71595632 -25.72265625 19.1796875 C-25.72768821 17.37369918 -25.73224808 15.56770947 -25.73632812 13.76171875 C-25.74718342 9.40100666 -25.7643515 5.04036301 -25.78515625 0.6796875 C-24.51227582 0.19514862 -23.23870348 -0.28757285 -21.96484375 -0.76953125 C-21.25569824 -1.03854248 -20.54655273 -1.30755371 -19.81591797 -1.5847168 C-13.59111451 -3.83950555 -5.57780978 -4.12538229 0 0 Z " fill="#81549D" transform="translate(330.78515625,515.3203125)"/>
<path d="M0 0 C13.99245784 15.01451563 20.66960924 35.07748174 20.390625 55.41796875 C19.99475782 63.61348928 18.09770293 69.46752204 12.24609375 75.41015625 C1.23737763 84.50534017 -13.12187163 84.58826226 -26.69140625 84.53515625 C-27.87968018 84.53322266 -29.0679541 84.53128906 -30.29223633 84.52929688 C-39.47509433 84.48448727 -48.60071034 84.13311672 -57.75390625 83.41015625 C-56.63171562 98.49984653 -56.63171562 98.49984653 -49.03515625 111.2421875 C-37.91792617 120.60526448 -22.54205232 119.20338136 -8.95800781 118.10253906 C-0.21101722 117.32562211 8.5197463 116.39007859 17.24609375 115.41015625 C19.86603914 134.97523231 19.86603914 134.97523231 15.24609375 141.41015625 C12.0778129 144.30831488 9.63161152 144.89888382 5.3984375 145.32421875 C4.24472656 145.44514893 3.09101562 145.5660791 1.90234375 145.69067383 C0.67515625 145.80435303 -0.55203125 145.91803223 -1.81640625 146.03515625 C-3.70166016 146.220177 -3.70166016 146.220177 -5.625 146.40893555 C-9.33316137 146.76273699 -13.04249288 147.09244571 -16.75390625 147.41015625 C-17.7372998 147.49571777 -18.72069336 147.5812793 -19.73388672 147.66943359 C-33.61244775 148.81816156 -47.90965053 149.51974136 -59.30566406 140.13183594 C-77.80582091 123.83015287 -88.65878639 100.97480043 -90.75390625 76.41015625 C-92.11790462 51.24184058 -88.84332364 23.35867277 -71.79541016 3.53979492 C-62.94090754 -6.25631889 -51.93838625 -13.67002794 -38.38671875 -14.6171875 C-23.12634822 -14.458697 -11.2691969 -10.80039831 0 0 Z M-47.95703125 19.0859375 C-58.28602609 32.44626779 -61.59694288 48.90068885 -60.75390625 65.41015625 C-36.00776993 69.97822163 -36.00776993 69.97822163 -12.25390625 64.53515625 C-7.97864844 60.90118711 -5.97939951 57.98077938 -5.48046875 52.29296875 C-5.14974376 40.05614426 -7.77773937 29.94474841 -15.8515625 20.3515625 C-20.79427876 15.30735309 -25.35634845 11.63294693 -32.56640625 11.16015625 C-39.11285053 11.29156298 -43.56994381 14.45620141 -47.95703125 19.0859375 Z " fill="#E85498" transform="translate(1015.75390625,759.58984375)"/>
<path d="M0 0 C15.53421771 10.32513872 24.64839342 26.09968524 29.109375 44.046875 C31.09240533 54.25664832 33.02756991 69.10226005 27.296875 78.421875 C20.64343899 87.27716753 12.11665681 90.17336467 1.55053711 92.02050781 C-4.09887933 92.71741189 -9.75317224 92.67918156 -15.43579102 92.62768555 C-17.50224332 92.60949281 -19.56824158 92.60717642 -21.63476562 92.60742188 C-30.36137136 92.58366276 -39.00634684 92.16186327 -47.703125 91.421875 C-46.15416394 107.29465158 -46.15416394 107.29465158 -37.703125 120.421875 C-29.61236421 125.5869589 -21.1704963 126.76964236 -11.765625 126.671875 C-10.85119629 126.66800781 -9.93676758 126.66414062 -8.99462891 126.66015625 C-2.42080247 126.5779406 3.9976992 126.02371207 10.50732422 125.13818359 C16.13609948 124.38012238 21.62747518 124.20146637 27.296875 124.421875 C28.62361662 128.40209987 28.55938864 132.06551261 28.609375 136.234375 C28.65288086 137.42643555 28.65288086 137.42643555 28.69726562 138.64257812 C28.75490842 144.00335762 28.14392956 147.36351211 24.296875 151.421875 C19.57631853 153.05398804 15.03014377 153.80552889 10.0703125 154.2734375 C9.40077545 154.33719574 8.7312384 154.40095398 8.04141235 154.46664429 C6.63158861 154.59917956 5.22145135 154.72841785 3.81103516 154.85449219 C1.69723978 155.04459385 -0.41495492 155.24804828 -2.52734375 155.453125 C-34.37195203 158.44757285 -34.37195203 158.44757285 -47.703125 149.421875 C-67.4691291 132.81635911 -77.98918453 108.80660093 -80.390625 83.375 C-82.43147665 57.55822658 -76.81673459 31.58252604 -60.82421875 10.8203125 C-45.65798812 -6.3289796 -20.15315914 -11.76571719 0 0 Z M-36.765625 26.296875 C-47.22987161 39.7264667 -51.73956744 56.60847548 -50.703125 73.421875 C-48.40509951 74.57088775 -46.70854982 74.71466026 -44.15234375 74.95703125 C-43.23235596 75.0444458 -42.31236816 75.13186035 -41.36450195 75.22192383 C-20.40335122 78.01988178 -20.40335122 78.01988178 -0.7578125 72.16796875 C3.18745404 68.67059479 4.87328744 64.663771 5.296875 59.421875 C5.56985691 47.37654803 1.45816656 36.31788138 -6.703125 27.421875 C-11.38830605 22.76785923 -15.31067814 19.80592559 -22.015625 19.046875 C-27.99990806 19.65544616 -32.60112887 21.92193891 -36.765625 26.296875 Z " fill="#81549D" transform="translate(263.703125,515.578125)"/>
<path d="M0 0 C17.3566678 9.07352215 31.80079072 27.01496365 38.25 45.4375 C46.50222856 73.2706744 47.27017645 108.13495844 33.72265625 134.3984375 C24.70501312 149.54807796 9.99196783 160.68021274 -7.15625 165.05078125 C-18.23545485 166.70265065 -29.1531112 166.23175058 -38.4375 159.484375 C-58.07313431 142.77071008 -64.65647376 114.11933304 -66.75 89.4375 C-68.692144 59.8822987 -57.54293209 38.38534863 -38.62109375 16.58984375 C-34.34910301 11.80445569 -29.63964459 7.58675676 -24.75 3.4375 C-24.15960937 2.86773438 -23.56921875 2.29796875 -22.9609375 1.7109375 C-16.76669371 -3.7509819 -7.29227739 -2.9424979 0 0 Z M-25 36.5 C-30.1731057 45.0356244 -33.35387495 54.58345461 -34.75 64.4375 C-34.86085938 65.18902344 -34.97171875 65.94054687 -35.0859375 66.71484375 C-37.90362463 89.59903243 -36.46692272 120.55183522 -21.75 139.4375 C-18.57666774 142.75186925 -15.79900065 144.27186832 -11.1875 145 C-5.63436677 144.09130547 -2.32182437 141.38091459 1.25 137.1875 C16.47228155 115.61261277 14.29722695 86.60966947 12 61.8125 C11.83636963 59.96470947 11.83636963 59.96470947 11.66943359 58.07958984 C10.59774221 47.67027815 9.28261859 35.8676722 1.25 28.4375 C-8.78288297 22.44301018 -18.77034981 27.8865551 -25 36.5 Z " fill="#81549D" transform="translate(564.75,511.5625)"/>
<path d="M0 0 C1.83957577 6.81140217 3.02137902 13.65992538 4.125 20.625 C4.30675781 21.73101563 4.48851562 22.83703125 4.67578125 23.9765625 C4.93294922 25.5853125 4.93294922 25.5853125 5.1953125 27.2265625 C5.35016113 28.19158691 5.50500977 29.15661133 5.66455078 30.15087891 C6.01487439 33.1263349 6.05703983 36.00679355 6 39 C4.96101562 38.94199219 3.92203125 38.88398437 2.8515625 38.82421875 C-5.70303589 38.48737502 -12.95561772 38.44216987 -20 44 C-25.53866882 49.64295337 -28.00658451 55.37198086 -28.4375 63.25 C-28.28758778 69.37141548 -26.69962355 74.10142438 -23 79 C-18.51274521 83.05832602 -14.1385179 85.66861472 -8 86 C-5.32423642 84.8324537 -5.32423642 84.8324537 -2.8125 83.0625 C2.81932241 79.76188277 7.54328319 78.70865664 14 80 C17.16620095 82.18618637 17.7896387 83.36891611 19 87 C19.55165147 91.74782 19.44453763 95.12680109 17.25 99.4375 C13.875 103.28125 13.875 103.28125 11 104 C5.14155725 103.90395995 2.09062171 102.87048402 -2.26171875 98.9609375 C-4.00445943 97.8022868 -4.00445943 97.8022868 -6.296875 98.0859375 C-9.77980589 99.26369159 -12.56725655 101.17608143 -15.5625 103.25 C-30.26306316 113.03164778 -46.29591939 117.59562671 -63.95703125 114.34765625 C-73.10289525 112.38213224 -81.8471295 109.08498079 -90.19091797 104.86474609 C-91.98336969 103.95419749 -91.98336969 103.95419749 -93.92236328 103.40478516 C-96.20748091 102.53809867 -97.37961906 101.85355442 -99 100 C-100.54096154 95.2245334 -101.14131243 90.33942263 -101.75 85.375 C-102.10250257 82.71319425 -102.47775794 80.05641369 -102.859375 77.3984375 C-103.00858398 76.21942871 -103.15779297 75.04041992 -103.31152344 73.82568359 C-103.73893829 70.68503182 -103.73893829 70.68503182 -107 69 C-114.10604472 67.8579571 -117.79826575 70.33306283 -123.58203125 74.37109375 C-127.72518845 77.16220288 -131.08801364 77.33875768 -136 77 C-139.68955822 75.62714113 -141.39076738 73.76357569 -143.3125 70.4375 C-145.72528149 65.08014029 -146.24930407 59.46108219 -144.234375 53.87890625 C-142.37825469 50.33607343 -140.71184297 48.38054511 -137 47 C-130.61361351 46.39516117 -125.02128594 46.75952151 -119 49 C-114.36647142 49.54190045 -114.36647142 49.54190045 -110.28125 47.76953125 C-108.56146835 45.39434501 -108.80791453 44.25984954 -109.1875 41.375 C-109.30351563 40.41722656 -109.41953125 39.45945312 -109.5390625 38.47265625 C-109.69117188 37.32667969 -109.84328125 36.18070313 -110 35 C-110.17714177 33.49900975 -110.35144928 31.99768323 -110.5234375 30.49609375 C-111.00145658 26.32894831 -111.49716897 22.16422204 -112 18 C-107.98095965 17.28135858 -103.96077811 16.56951783 -99.93945312 15.86376953 C-98.57356851 15.62309213 -97.2080011 15.38060688 -95.84277344 15.13623047 C-93.87260353 14.78390081 -91.90115299 14.43875646 -89.9296875 14.09375 C-88.74616699 13.88427734 -87.56264648 13.67480469 -86.34326172 13.45898438 C-83.17737008 13.0243505 -80.19023929 12.91504023 -77 13 C-77.03480469 13.75023437 -77.06960938 14.50046875 -77.10546875 15.2734375 C-77.3253337 23.58642671 -76.88243509 31.54343703 -71.75 38.4375 C-67.52712732 42.37244955 -63.41499172 44.11614694 -57.6875 44.5 C-51.46811789 44.25547728 -45.65123535 41.71797125 -41.29296875 37.25 C-37.30627792 31.91909352 -36.15122949 26.57253063 -37 20 C-37.95107435 17.07484695 -39.03437136 14.25464884 -40.22265625 11.41796875 C-41 9 -41 9 -40 6 C-34.78605563 5.14247587 -29.57161537 4.28805813 -24.35668945 3.43652344 C-22.58246079 3.14636329 -20.80837101 2.85535266 -19.03442383 2.56347656 C-16.48554889 2.14424902 -13.93619126 1.72807598 -11.38671875 1.3125 C-10.19594978 1.11563599 -10.19594978 1.11563599 -8.98112488 0.91479492 C-5.95241367 0.42350228 -3.07398021 0 0 0 Z M-42.5 59.6875 C-46.10726133 63.31579493 -45.94161227 68.17765922 -46.34765625 73.0390625 C-47 76 -47 76 -48.68359375 77.8359375 C-51.44625393 79.22425577 -53.9411411 79.6524024 -57 80 C-56.85924795 77.06217531 -56.7126162 74.12484829 -56.5625 71.1875 C-56.52318359 70.35412109 -56.48386719 69.52074219 -56.44335938 68.66210938 C-56.40146484 67.85966797 -56.35957031 67.05722656 -56.31640625 66.23046875 C-56.27974854 65.49207764 -56.24309082 64.75368652 -56.20532227 63.99291992 C-56 62 -56 62 -55 59 C-57.97 59 -60.94 59 -64 59 C-63.34 59.33 -62.68 59.66 -62 60 C-62 66.6 -62 73.2 -62 80 C-70 78 -70 78 -71.44140625 76.25390625 C-72.38113332 72.46214039 -72.84704422 68.64797307 -73.33984375 64.77734375 C-74.03359756 61.8586517 -74.68235953 60.82506293 -77 59 C-77.99 59.33 -78.98 59.66 -80 60 C-79.62966176 62.58935677 -79.23014117 65.1682182 -78.8125 67.75 C-78.71130859 68.47960937 -78.61011719 69.20921875 -78.50585938 69.9609375 C-77.87154269 73.73255021 -77.393993 75.57902117 -74.71875 78.4375 C-70.54645237 80.8353722 -66.73450872 81.2424786 -62 82 C-62 87.61 -62 93.22 -62 99 C-62.99 99.495 -62.99 99.495 -64 100 C-60.37 100 -56.74 100 -53 100 C-53.66 99.34 -54.32 98.68 -55 98 C-55.46659731 95.27530214 -55.83599254 92.61820198 -56.125 89.875 C-56.21136719 89.12089844 -56.29773438 88.36679687 -56.38671875 87.58984375 C-56.59889261 85.72742873 -56.80045763 83.86381069 -57 82 C-56.26394531 81.91363281 -55.52789063 81.82726562 -54.76953125 81.73828125 C-48.36440223 80.82462491 -48.36440223 80.82462491 -42.875 77.5625 C-39.47870632 72.92089864 -39.65892112 68.27874866 -39.28125 62.71484375 C-39 60 -39 60 -38 58 C-40.22642246 57.81350905 -40.22642246 57.81350905 -42.5 59.6875 Z " fill="#E85498" transform="translate(969,557)"/>
<path d="M0 0 C9.51695025 8.08595954 13.11858122 19.78379008 14.125 31.875 C14.20953639 35.83708391 14.14484924 39.79546154 14.09375 43.7578125 C14.02758408 54.35761092 14.28313068 64.90718983 14.78125 75.4921875 C14.81430237 76.19658211 14.84735474 76.90097672 14.88140869 77.62671661 C15.0858213 81.94026201 15.29917719 86.25333092 15.51568604 90.56628418 C15.80738737 96.39347029 16.08962392 102.22110903 16.36845398 108.04892349 C16.46517251 110.04341392 16.56630289 112.0376889 16.66760254 114.0319519 C17.20687862 125.10474378 17.37687799 136.12270094 16.625 147.1875 C16.57730469 147.93966797 16.52960938 148.69183594 16.48046875 149.46679688 C16.36562986 151.26976749 16.24589125 153.07242509 16.125 154.875 C8.49131031 154.56214387 1.70206192 153.56745101 -3.8125 147.875 C-4.87810001 145.86916469 -5.47652364 144.10646762 -5.875 141.875 C-6.431875 143.2053125 -6.431875 143.2053125 -7 144.5625 C-9.63048585 149.20969167 -12.69484269 152.1482809 -17.875 153.875 C-34.05590211 154.84997904 -47.41306578 152.37636617 -60.0625 141.6875 C-69.84717552 132.47928598 -74.81993757 120.65218188 -75.34765625 107.25415039 C-75.51946513 92.69795014 -71.67685842 78.26010869 -61.875 67.125 C-48.25206531 54.79948766 -27.42653318 52.05673047 -9.875 49.875 C-9.53628424 40.86139739 -9.60405347 31.94991404 -15.875 24.875 C-25.39239834 18.40737571 -35.74612325 17.23894816 -47.00830078 19.25732422 C-56.32524022 21.43686532 -64.11517308 25.24309636 -71.875 30.875 C-72.865 31.535 -73.855 32.195 -74.875 32.875 C-74.875 24.295 -74.875 15.715 -74.875 6.875 C-72.235 6.215 -69.595 5.555 -66.875 4.875 C-64.57827627 3.82574877 -62.30695033 2.71935383 -60.0625 1.5625 C-41.46156001 -7.48269091 -18.16637976 -12.78598775 0 0 Z M-29.9375 75.875 C-39.27548749 84.73030821 -48.27731009 97.61080632 -49.125 110.75 C-49.02687603 115.56699494 -47.71754645 118.88134524 -44.3984375 122.47265625 C-39.29046898 127.21910188 -33.81576991 129.89338539 -26.8125 130.3125 C-22.25088947 129.80565439 -19.24604844 129.04018289 -15.875 125.875 C-9.38794685 116.31619583 -9.55831 103.27744144 -9.6875 92.1875 C-9.68814453 91.12466797 -9.68878906 90.06183594 -9.68945312 88.96679688 C-9.72335915 82.85994576 -10.0824273 76.93025542 -10.875 70.875 C-18.14288628 68.82508336 -24.25472917 71.23053504 -29.9375 75.875 Z " fill="#E85498" transform="translate(231.875,759.125)"/>
<path d="M0 0 C8.6365139 6.23410334 13.6207325 14.36452019 15.79589844 24.89208984 C16.3414552 28.92627675 16.44289389 32.87533904 16.49609375 36.94140625 C16.52786188 38.68864323 16.55985409 40.43587615 16.59204102 42.18310547 C16.60743927 43.09944763 16.62283752 44.01578979 16.63870239 44.9598999 C16.88121127 59.13643179 17.27961108 73.27449093 18.17370605 87.42532349 C19.1300477 102.58190864 19.44339052 117.68803296 19.4375 132.875 C19.4387236 134.37773468 19.4387236 134.37773468 19.43997192 135.91082764 C19.43970872 138.74531457 19.43097142 141.579608 19.41796875 144.4140625 C19.41617111 145.69098969 19.41617111 145.69098969 19.41433716 146.99371338 C19.3875391 150.32636308 19.31105042 153.06684875 18.25 156.25 C11.27078025 155.79104904 5.40495684 154.97861132 -0.0625 150.25 C-1.75 148.25 -1.75 148.25 -3.75 145.25 C-4.61625 146.6421875 -4.61625 146.6421875 -5.5 148.0625 C-8.44649886 152.23670672 -10.7548301 154.29933328 -15.75 155.25 C-31.24761143 156.32548839 -44.86050904 153.26005056 -57.375 143.625 C-66.60022209 135.25594702 -71.4747107 123.22869162 -72.6875 111.0625 C-73.27203678 96.28421104 -69.86280929 82.3554516 -60.64453125 70.5546875 C-47.4110999 56.36095405 -26.04316576 54.13099794 -7.75 51.25 C-6.92930893 38.57316781 -6.92930893 38.57316781 -12.19140625 27.54296875 C-19.56012349 20.51618734 -27.97421861 19.67520724 -37.83984375 19.90234375 C-51.23988262 21.0937558 -61.76736794 26.92824529 -72.75 34.25 C-72.42 25.67 -72.09 17.09 -71.75 8.25 C-68.78 7.26 -65.81 6.27 -62.75 5.25 C-59.73209545 3.99094261 -59.73209545 3.99094261 -56.72802734 2.69946289 C-38.74106412 -5.11899097 -17.93722569 -11.14372493 0 0 Z M-27.25 76.625 C-36.31704712 85.14507908 -45.84058256 99.50585282 -46.375 112.125 C-46.03784978 116.96451049 -45.20929212 120.72924838 -41.75 124.25 C-34.89938502 129.26847376 -28.42059922 132.4217026 -19.75 131.25 C-14.64378128 128.79508715 -11.86592291 125.43694544 -9.75 120.25 C-7.89713911 113.95429924 -7.32354093 107.6558799 -7.0625 101.125 C-7.0227002 100.21572754 -6.98290039 99.30645508 -6.94189453 98.36962891 C-6.3376797 85.13256207 -6.3376797 85.13256207 -8.75 72.25 C-15.56346329 70.32825394 -21.73765109 72.39161836 -27.25 76.625 Z " fill="#E85498" transform="translate(686.75,757.75)"/>
<path d="M0 0 C1.16783524 -0.00570007 2.33567047 -0.01140015 3.53889465 -0.01727295 C5.99198515 -0.0266652 8.44508794 -0.03323376 10.89819336 -0.03710938 C14.64393843 -0.04687345 18.38914756 -0.07797549 22.13476562 -0.109375 C24.52734052 -0.1159008 26.9199193 -0.12115293 29.3125 -0.125 C30.42618454 -0.1373468 31.53986908 -0.1496936 32.68730164 -0.16241455 C38.70342679 -0.14519169 43.20527011 0.14843337 48.45703125 3.203125 C50.65895349 6.50600836 50.69663093 7.47775227 50.65234375 11.30859375 C50.64589844 12.29150391 50.63945312 13.27441406 50.6328125 14.28710938 C50.60767578 15.82334961 50.60767578 15.82334961 50.58203125 17.390625 C50.57300781 18.42638672 50.56398438 19.46214844 50.5546875 20.52929688 C50.53110985 23.08747185 50.49820155 25.64518248 50.45703125 28.203125 C12.48969282 28.88067886 12.48969282 28.88067886 -1.54296875 24.203125 C-1.38183594 24.96882812 -1.22070312 25.73453125 -1.0546875 26.5234375 C-0.37763696 31.39199942 -0.3523573 36.16786625 -0.35546875 41.078125 C-0.35482422 42.15006104 -0.35417969 43.22199707 -0.35351562 44.32641602 C-0.42016223 54.98305596 -1.07360217 65.58662024 -1.83129883 76.21240234 C-2.32520583 83.22561788 -2.69206788 90.17165124 -2.54296875 97.203125 C-0.83213063 97.30490904 0.87871646 97.40654401 2.58959961 97.50756836 C4.09829386 97.59708805 5.60691977 97.68776619 7.11547852 97.77954102 C11.25056968 98.02799594 15.38444614 98.2491171 19.5234375 98.421875 C20.33828613 98.45869385 21.15313477 98.4955127 21.99267578 98.53344727 C23.57536132 98.60407127 25.15839965 98.66724201 26.74169922 98.72241211 C32.23273046 98.97882421 32.23273046 98.97882421 34.45703125 101.203125 C34.92897719 103.99110195 35.29592514 106.70850191 35.58203125 109.515625 C35.66839844 110.27552734 35.75476563 111.03542969 35.84375 111.81835938 C36.67632867 119.42389945 36.67632867 119.42389945 36.45703125 123.203125 C32.38839859 127.27175766 18.42282863 125.48655688 12.56030273 125.53320312 C6.73131405 125.44319036 2.37530468 124.25711524 -2.54296875 121.203125 C-3.53296875 120.708125 -3.53296875 120.708125 -4.54296875 120.203125 C-5.33940219 125.12778326 -5.70166571 129.91575684 -5.73242188 134.9074707 C-5.74071518 135.6434549 -5.74900848 136.37943909 -5.7575531 137.13772583 C-5.7748486 138.72435261 -5.79004323 140.31100343 -5.80332947 141.89766884 C-5.82454122 144.41720968 -5.85154956 146.93663165 -5.88000488 149.45610046 C-5.93943853 154.80922841 -5.99168496 160.16241361 -6.04296875 165.515625 C-6.10247202 171.71344115 -6.16500518 177.91119875 -6.23484802 184.1089077 C-6.26115318 186.57586606 -6.2821303 189.04283134 -6.30285645 191.50984192 C-6.37983229 199.12596375 -6.60704536 206.63379725 -7.54296875 214.203125 C-13.80719857 213.79151264 -19.80194338 213.01519746 -25.94140625 211.66015625 C-27.18325684 211.38792236 -28.42510742 211.11568848 -29.70458984 210.83520508 C-30.64125488 210.62661865 -31.57791992 210.41803223 -32.54296875 210.203125 C-32.95476197 203.50367205 -33.36328275 196.80402467 -33.76977539 190.10424805 C-33.90773538 187.83630098 -34.04638096 185.5683955 -34.18579102 183.30053711 C-36.74376022 141.66196974 -36.74376022 141.66196974 -36.66796875 121.828125 C-36.66641785 121.15867859 -36.66486694 120.48923218 -36.66326904 119.79949951 C-36.56076065 80.84743695 -34.93067191 42.00921019 -31.54296875 3.203125 C-21.0115603 0.6552036 -10.81928514 0.04151332 0 0 Z " fill="#E85498" transform="translate(94.54296875,695.796875)"/>
<path d="M0 0 C1.11823815 2.23647631 1.19396061 3.64891529 1.31640625 6.1328125 C1.35830078 6.93847656 1.40019531 7.74414062 1.44335938 8.57421875 C1.48267578 9.41597656 1.52199219 10.25773438 1.5625 11.125 C1.60568359 11.97449219 1.64886719 12.82398438 1.69335938 13.69921875 C1.79954236 15.79928223 1.90028497 17.89961948 2 20 C2.57105469 19.443125 3.14210938 18.88625 3.73046875 18.3125 C14.7368729 7.95353139 27.40949497 -0.95602114 43 -1 C51.20240576 -0.39241439 56.57033118 3.47234064 62.1875 9.25 C78.08939331 33.37701054 77.41848728 67.13285638 77.625 94.9375 C77.66177612 98.53551102 77.70247047 102.13342321 77.74765015 105.7313385 C77.77440797 107.94175775 77.79595351 110.15224901 77.81118774 112.36277771 C77.86511179 117.63307233 78.12398658 122.76748628 78.77590942 127.99714661 C79.10007816 130.89446811 79.12972655 133.7661125 79.1328125 136.6796875 C79.13410156 137.8553125 79.13539063 139.0309375 79.13671875 140.2421875 C79.13285156 141.44101562 79.12898437 142.63984375 79.125 143.875 C79.12886719 145.09703125 79.13273438 146.3190625 79.13671875 147.578125 C79.13542969 148.74601563 79.13414062 149.91390625 79.1328125 151.1171875 C79.13168457 152.17534668 79.13055664 153.23350586 79.12939453 154.32373047 C79 157 79 157 78 160 C74.93616098 159.91280537 71.87515949 159.80589603 68.8125 159.6875 C67.51602539 159.65366211 67.51602539 159.65366211 66.19335938 159.61914062 C61.40655152 159.41739777 57.80209238 159.2262415 54 156 C52.09606694 152.93515235 51.7931402 150.7732206 51.9453125 147.19921875 C51.97254395 146.18698242 51.99977539 145.17474609 52.02783203 144.13183594 C52.05989746 142.99520508 52.09196289 141.85857422 52.125 140.6875 C52.3478197 125.48356815 51.27170194 110.40438045 50.125 95.25 C50.03768616 94.09229095 49.95037231 92.93458191 49.8604126 91.74179077 C49.42959945 86.06818114 48.98728005 80.39563208 48.53271484 74.72387695 C48.16595439 70.14547138 47.81938548 65.56612085 47.48681641 60.98510742 C47.40237274 59.85292786 47.31792908 58.72074829 47.23092651 57.55426025 C47.07145706 55.41453904 46.91677426 53.27445337 46.76785278 51.13397217 C46.04622833 41.63607278 44.32269485 32.47227573 38 25 C35.07327328 22.62697833 33.31690796 22.04033374 29.5625 21.5625 C23.38183621 22.32152889 19.3111325 26.01330976 15.5078125 30.72265625 C4.89434285 46.75284486 2.7972743 67.59170883 2.875 86.3125 C2.87790039 88.02566406 2.87790039 88.02566406 2.88085938 89.7734375 C2.91566472 96.69583464 3.10704021 103.58913794 3.5 110.5 C4.19475578 122.81309628 4.52264943 134.97342193 3.125 147.25 C3.04660889 147.9411792 2.96821777 148.6323584 2.88745117 149.34448242 C2.36297238 153.43018728 1.42691425 157.13893791 0 161 C-2.41700987 160.85870713 -4.83350429 160.71213513 -7.25 160.5625 C-7.93191406 160.52318359 -8.61382813 160.48386719 -9.31640625 160.44335938 C-12.66265563 160.2321883 -15.76804986 159.87661968 -19 159 C-20.07190748 151.05942221 -20.20180391 143.18296335 -20.28125 135.1796875 C-20.29907797 133.7294205 -20.31736322 132.27915906 -20.33607483 130.8289032 C-20.3749653 127.76373519 -20.41142867 124.69855295 -20.4458313 121.6333313 C-20.53563154 113.65776861 -20.64053928 105.68239855 -20.74609375 97.70703125 C-20.75633009 96.92390753 -20.76656643 96.14078381 -20.77711296 95.33392906 C-20.92875348 83.82240494 -21.15245726 72.31586256 -21.49572754 60.80825806 C-21.88177786 47.82422842 -22.15173359 34.84034484 -22.23117065 21.85055542 C-22.24360015 20.09263855 -22.26101539 18.33474898 -22.28372192 16.57693481 C-22.3132432 14.16959809 -22.32345116 11.76296449 -22.328125 9.35546875 C-22.34042648 8.63678619 -22.35272797 7.91810364 -22.36540222 7.17764282 C-22.35644531 5.18823242 -22.35644531 5.18823242 -22 2 C-15.97826962 -2.01448692 -6.85625979 -2.07765448 0 0 Z " fill="#E85498" transform="translate(737,750)"/>
<path d="M0 0 C0.86419223 2.59257669 1.17580932 4.34037707 1.31640625 7.01171875 C1.35830078 7.76904297 1.40019531 8.52636719 1.44335938 9.30664062 C1.48267578 10.09232422 1.52199219 10.87800781 1.5625 11.6875 C1.60568359 12.48478516 1.64886719 13.28207031 1.69335938 14.10351562 C1.79927368 16.06881447 1.90012551 18.03438496 2 20 C2.58265625 19.443125 3.1653125 18.88625 3.765625 18.3125 C14.12578694 8.66907883 25.24096167 -0.24338627 39.9140625 -1.1875 C48.06775486 -0.82000964 55.6548183 2.12092962 61.3125 8.125 C76.35184272 27.8667851 76.97099364 59.54811538 77.28125 83.29296875 C77.29965942 84.40505203 77.31806885 85.51713531 77.33703613 86.66291809 C77.41467078 91.35616752 77.48327788 96.04953633 77.55224609 100.74291992 C77.60434778 104.197166 77.66142184 107.65130607 77.71875 111.10546875 C77.73232544 112.15051071 77.74590088 113.19555267 77.7598877 114.27226257 C77.85302958 119.83465686 78.17070905 125.29586425 78.77838135 130.82545471 C79.05211455 133.51135338 79.12937544 136.16811022 79.1328125 138.8671875 C79.13410156 139.85460937 79.13539063 140.84203125 79.13671875 141.859375 C79.13285156 142.85453125 79.12898437 143.8496875 79.125 144.875 C79.12886719 145.89335938 79.13273438 146.91171875 79.13671875 147.9609375 C79.13542969 148.940625 79.13414062 149.9203125 79.1328125 150.9296875 C79.13168457 151.80866699 79.13055664 152.68764648 79.12939453 153.59326172 C79.00722473 155.86561996 78.63640921 157.82154664 78 160 C74.93616098 159.91280537 71.87515949 159.80589603 68.8125 159.6875 C67.51602539 159.65366211 67.51602539 159.65366211 66.19335938 159.61914062 C61.37563411 159.41609473 57.87638186 159.16884809 54 156 C51.75714001 152.63571001 51.77767959 151.66316112 51.87060547 147.75 C51.88688995 146.68072266 51.90317444 145.61144531 51.91995239 144.50976562 C51.94378998 143.35154297 51.96762756 142.19332031 51.9921875 141 C52.13621161 126.91366486 51.27196689 113.03156657 50.125 99 C49.94824816 96.75007604 49.77246681 94.50007562 49.59765625 92.25 C49.3360842 88.88632313 49.07217366 85.52294274 48.79937744 82.16015625 C48.32797707 76.33818652 47.89592542 70.51688944 47.52636719 64.6875 C47.40731522 62.88249023 47.40731522 62.88249023 47.28585815 61.04101562 C47.13688293 58.75904956 46.99650905 56.47649758 46.86672974 54.19335938 C46.08735314 42.51161693 43.86382571 32.17244811 35.625 23.5 C32.08692988 21.47824564 30.02803282 21.44440927 26 22 C17.47913976 25.43824185 13.99022725 32.46130479 10.375 40.5625 C5.53086468 52.76659575 2.82114752 65.63287121 2.93408203 78.77026367 C2.93875488 79.50157501 2.94342773 80.23288635 2.94824219 80.98635864 C2.95866969 82.56044749 2.97130643 84.13452299 2.98596573 85.70857811 C3.00820504 88.21215928 3.02214454 90.7156623 3.03366089 93.21931458 C3.0670391 100.33324769 3.10855938 107.44705243 3.17138672 114.56079102 C3.20935734 118.92722047 3.23215501 123.29351903 3.24569321 127.66008949 C3.25366676 129.31007857 3.26715813 130.96005179 3.28662491 132.6099453 C3.40199211 142.56359745 2.81114784 151.37082114 0 161 C-2.41700987 160.85870713 -4.83350429 160.71213513 -7.25 160.5625 C-7.93191406 160.52318359 -8.61382813 160.48386719 -9.31640625 160.44335938 C-12.64448041 160.23333528 -15.80255402 159.98065998 -19 159 C-19.8690012 155.23348607 -20.14425891 151.71525151 -20.18945312 147.85327148 C-20.21458229 146.01400841 -20.21458229 146.01400841 -20.24021912 144.1375885 C-20.253929 142.79875725 -20.26760501 141.45992566 -20.28125 140.12109375 C-20.29905478 138.7246796 -20.31733938 137.32827149 -20.33607483 135.93186951 C-20.37509985 132.97094128 -20.41154306 130.00999809 -20.4458313 127.04901123 C-20.53529795 119.34633771 -20.64027493 111.6438698 -20.74609375 103.94140625 C-20.75633009 103.1862825 -20.76656643 102.43115875 -20.77711296 101.65315247 C-20.92201822 91.05295054 -21.13765431 80.45857406 -21.49572754 69.86325073 C-21.96688386 55.83386073 -22.16317346 41.80412645 -22.23117065 27.76715088 C-22.24364694 25.51951796 -22.26110186 23.27190675 -22.28372192 21.02435303 C-22.31339036 17.8989077 -22.32347785 14.77400714 -22.328125 11.6484375 C-22.34042648 10.70141968 -22.35272797 9.75440186 -22.36540222 8.77868652 C-22.36244644 7.91247681 -22.35949066 7.04626709 -22.35644531 6.15380859 C-22.36009094 5.39635345 -22.36373657 4.63889832 -22.36749268 3.85848999 C-22.24622009 3.24518829 -22.12494751 2.6318866 -22 2 C-15.74937345 -2.16708437 -7.11401354 -1.77850339 0 0 Z " fill="#E85498" transform="translate(521,750)"/>
<path d="M0 0 C6.08763044 5.55048658 7.28822314 14.17045456 8 22 C11.14586106 21.0262811 13.97511983 20.01352183 16.875 18.4375 C22.15511958 16.00864499 26.12762761 15.46949449 31.75 17.0625 C35.66988464 19.39935431 37.13343392 20.81889199 39 25 C39.76552025 30.30339803 39.63333136 34.58133775 37.4375 39.5 C33.63235923 43.40270849 30.03870568 44.84898476 24.625 45.25 C21.82386177 45.05681805 19.06146479 44.80038541 16.2734375 44.484375 C15.47083496 44.39381836 14.66823242 44.30326172 13.84130859 44.20996094 C13.23367676 44.14067383 12.62604492 44.07138672 12 44 C12.10022461 44.60277267 12.20044922 45.20554535 12.30371094 45.82658386 C13.3466197 52.10373139 14.38391676 58.38178792 15.41796875 64.66040039 C15.80455161 67.00308605 16.19256186 69.34553663 16.58203125 71.68774414 C17.14178413 75.05554304 17.69638851 78.42415557 18.25 81.79296875 C18.51248535 83.36198189 18.51248535 83.36198189 18.78027344 84.96269226 C18.94043945 85.94333145 19.10060547 86.92397064 19.265625 87.93432617 C19.40774414 88.79370285 19.54986328 89.65307953 19.69628906 90.53849792 C20.00635022 93.05146697 20.0531705 95.47067144 20 98 C15.81997165 98.71733942 11.6390645 99.429246 7.45727539 100.13623047 C6.03612587 100.37726778 4.61522278 100.61976289 3.19458008 100.86376953 C1.14728527 101.21514412 -0.90085151 101.56118932 -2.94921875 101.90625 C-4.17987061 102.11572266 -5.41052246 102.32519531 -6.6784668 102.54101562 C-9.51596615 102.93311403 -12.14371617 103.0948144 -15 103 C-14.97679687 102.443125 -14.95359375 101.88625 -14.9296875 101.3125 C-14.73417109 93.04494878 -15.7223506 86.63475925 -21 80 C-25.54988377 75.57308606 -30.12870821 74.26586035 -36.375 73.6875 C-44.29022263 74.36984678 -50.71835183 76.91680089 -56 83 C-59.69092921 89.31029832 -59.89248016 95.03513124 -58.3203125 102.01953125 C-57.59807902 104.69867353 -56.83124846 107.35286949 -56 110 C-62.00343341 111.44527101 -68.04120921 112.58045267 -74.125 113.625 C-74.8886084 113.76010986 -75.6522168 113.89521973 -76.43896484 114.03442383 C-81.02943424 114.80678694 -85.34544176 115.13580939 -90 115 C-98.09150798 100.83186547 -100.38172581 84.63475307 -96.875 68.6875 C-93.59227302 57.57790084 -88.20958488 49.10787321 -80 41 C-79.44699219 40.42507813 -78.89398437 39.85015625 -78.32421875 39.2578125 C-63.56992506 25.12590837 -43.00584372 25.57793494 -24.08862305 25.95239258 C-23.39937744 25.96810303 -22.71013184 25.98381348 -22 26 C-21.70561035 24.88395386 -21.70561035 24.88395386 -21.40527344 23.74536133 C-21.01130371 22.27232544 -21.01130371 22.27232544 -20.609375 20.76953125 C-20.22217285 19.31317261 -20.22217285 19.31317261 -19.82714844 17.82739258 C-17.66573485 10.43916036 -14.47020472 5.33848994 -8 1 C-4.93309225 -0.02230258 -3.18373032 -0.46591175 0 0 Z " fill="#94C11F" transform="translate(826,468)"/>
<path d="M0 0 C14 0 14 0 20 1 C22.32269067 12.88305138 22.56742899 23.14856438 20 35 C21.7325 34.7525 21.7325 34.7525 23.5 34.5 C28.0362961 34.01036804 32.56520282 33.82170819 37.125 33.75 C38.12756836 33.7180957 38.12756836 33.7180957 39.15039062 33.68554688 C44.96357472 33.64545595 49.54348432 34.76816564 53.921875 38.74609375 C55.44440868 41.92907176 55.32381303 44.55269043 55.25 48.0625 C55.23453125 49.29097656 55.2190625 50.51945313 55.203125 51.78515625 C55 55 55 55 54 58 C46.32007404 57.47605532 38.67281256 56.78057877 31.01953125 55.9609375 C30.14800415 55.8683667 29.27647705 55.7757959 28.37854004 55.68041992 C26.25227055 55.45445367 24.12612245 55.22734563 22 55 C21.95351151 68.20499773 21.9180472 81.40997575 21.89637566 94.61503887 C21.88597064 100.74770196 21.87187174 106.88030875 21.84912109 113.01293945 C21.82727525 118.93924826 21.81540673 124.86550315 21.81024551 130.79184914 C21.80657075 133.04468445 21.79939526 135.29751705 21.78853989 137.55032921 C21.04237424 160.25281745 21.04237424 160.25281745 29 181 C32.14982795 184.14982795 34.96421816 184.18714983 39.25 184.3125 C44.39325472 184.17990592 49.03191489 183.30310429 54 182 C53.17845673 203.24680862 53.17845673 203.24680862 48.57421875 208.68359375 C43.11749928 213.46330088 37.72086949 213.47002698 30.76953125 213.3984375 C20.35849203 212.29799605 11.85451531 205.56444725 5 198 C-9.73689733 178.37197726 -9.22849472 151.76924339 -9.25 128.375 C-9.25250763 126.93250885 -9.25250763 126.93250885 -9.25506592 125.46087646 C-9.25642833 112.29264692 -8.85031819 99.23800817 -7.625 86.125 C-7.56187622 85.44846375 -7.49875244 84.77192749 -7.43371582 84.07489014 C-6.56444029 75.00819595 -5.35352198 66.00552556 -4 57 C-5.02154175 57.0314209 -5.02154175 57.0314209 -6.0637207 57.06347656 C-9.14649722 57.14657452 -12.22903837 57.19863954 -15.3125 57.25 C-16.38435547 57.28351562 -17.45621094 57.31703125 -18.56054688 57.3515625 C-19.58857422 57.36445312 -20.61660156 57.37734375 -21.67578125 57.390625 C-22.62364502 57.41157227 -23.57150879 57.43251953 -24.5480957 57.45410156 C-27 57 -27 57 -28.81323242 55.20605469 C-31.86702319 49.52943395 -29.76436759 41.88551816 -28 36 C-27 35 -27 35 -23.90234375 34.8671875 C-22.59394531 34.86976563 -21.28554688 34.87234375 -19.9375 34.875 C-18.64714844 34.87242187 -17.35679687 34.86984375 -16.02734375 34.8671875 C-12.00267371 34.99991183 -7.99576202 35.50052975 -4 36 C-2.68 24.12 -1.36 12.24 0 0 Z " fill="#E85498" transform="translate(856,697)"/>
<path d="M0 0 C2.0309276 6.09278281 2.11355753 13.46251391 -0.5625 19.375 C-2.25578035 22.25911535 -3.93058415 23.70987223 -6.6953125 25.54296875 C-9.01185592 27.48464838 -9.90851395 28.37094523 -10.34838867 31.39550781 C-10.16323863 34.28562927 -9.77894872 37.07936519 -9.3125 39.9375 C-7.43067301 55.09354602 -7.92450358 69.29542358 -17.28125 82.12890625 C-31.3466748 99.2557391 -53.92212044 105.47075453 -75 109 C-76.32 109 -77.64 109 -79 109 C-80.65 101.08 -82.3 93.16 -84 85 C-91.44493081 83.89153336 -91.44493081 83.89153336 -97.25 87.375 C-102.95147897 91.00716046 -107.13037925 92.74084145 -114 92 C-118.14082455 90.21191667 -120.43189313 87.6687241 -123 84 C-124.67009208 78.98972375 -124.57792698 74.66956683 -122.875 69.75 C-120.56513806 66.36220249 -118.61685812 64.94722029 -115 63 C-112.16130228 62.58602325 -109.42001457 62.70824849 -106.5625 62.875 C-100.89564162 63.1470092 -96.37215277 62.96956296 -91 61 C-88.66483261 59.09292428 -88.66483261 59.09292428 -88.71875 55.81640625 C-88.88812121 49.11565794 -90.31853937 42.5179978 -91.5 35.9375 C-91.97567835 33.28104394 -92.44306027 30.62355278 -92.90625 27.96484375 C-93.11572266 26.7955835 -93.32519531 25.62632324 -93.54101562 24.42163086 C-94.01258611 20.90617321 -94.07901753 17.54252513 -94 14 C-83.36998463 11.87965119 -72.77091097 10.21745669 -62 9 C-62.04640625 9.90621094 -62.0928125 10.81242188 -62.140625 11.74609375 C-62.38656667 20.04662499 -62.38345034 27.25030838 -56.50390625 33.62109375 C-51.38575139 38.12660165 -46.76627047 38.41529988 -40.2109375 38.3359375 C-34.26346967 37.71369634 -29.51145419 35.505785 -25.26953125 31.2734375 C-21.90077391 26.6873981 -21.31719216 22.2942465 -21.55859375 16.6875 C-22.12441564 13.2424959 -23.3163449 10.62043475 -25.125 7.65625 C-26 6 -26 6 -26 3 C-22.60720768 2.29688401 -19.21043326 1.61529709 -15.8125 0.9375 C-14.85279297 0.73833984 -13.89308594 0.53917969 -12.90429688 0.33398438 C-11.97294922 0.15029297 -11.04160156 -0.03339844 -10.08203125 -0.22265625 C-9.22843018 -0.39547119 -8.3748291 -0.56828613 -7.49536133 -0.74633789 C-4.77237609 -1.02313876 -2.64223961 -0.66418083 0 0 Z " fill="#65C2CB" transform="translate(1072,544)"/>
<path d="M0 0 C-0.33 9.57 -0.66 19.14 -1 29 C-3.64 27.02 -6.28 25.04 -9 23 C-17.6875941 18.26846427 -27.10870072 15.31618004 -36.875 18.125 C-41.73560777 20.03794045 -44.63253798 22.85962467 -47.4375 27.25 C-48.68380985 33.34307037 -46.55176235 38.53333491 -43.25 43.625 C-42.18709229 45.09828695 -41.1044348 46.55758154 -40 48 C-39.55785156 48.59554687 -39.11570312 49.19109375 -38.66015625 49.8046875 C-34.67315912 54.82021432 -29.74720083 58.63325822 -24.75292969 62.6015625 C8.81952584 89.38471365 8.81952584 89.38471365 11.3359375 105.09765625 C11.60595471 118.6795217 5.44285264 131.06883782 -3.64453125 140.734375 C-13.60679628 150.31665314 -26.19959658 152.13173695 -39.60205078 151.96826172 C-42.50706229 151.90081949 -45.40897915 151.80217606 -48.3125 151.6875 C-49.24352539 151.65301758 -50.17455078 151.61853516 -51.13378906 151.58300781 C-64.375342 150.93395853 -64.375342 150.93395853 -69.375 147.25 C-72.94801837 142.3027438 -73.47414705 136.52535547 -74.125 130.625 C-74.21136719 129.88894531 -74.29773438 129.15289063 -74.38671875 128.39453125 C-74.59681885 126.59700818 -74.79920767 124.79858658 -75 123 C-70.61388292 123.63701549 -66.54267889 124.68801749 -62.3125 126 C-52.48795909 128.83360443 -42.54043753 130.83741078 -33.02734375 125.99609375 C-28.06770062 122.80549531 -25.1388302 118.77571892 -23.41796875 113.0703125 C-21.46836445 103.41339401 -24.12463136 95.00870666 -28.9375 86.625 C-35.71389846 78.00049287 -44.580371 72.7118124 -54.0625 67.5 C-64.47547073 61.72281654 -73.79476778 56.02864068 -77.63671875 44.0078125 C-80.1469763 30.13391592 -74.79350925 17.25900249 -67 6 C-48.09677488 -18.84122706 -24.6796505 -12.33982525 0 0 Z " fill="#E85498" transform="translate(335,759)"/>
<path d="M0 0 C-0.33 7.59 -0.66 15.18 -1 23 C-3.97 22.01 -6.94 21.02 -10 20 C-19.53973609 17.41254306 -27.58570176 17.77286864 -36.5078125 22.26171875 C-49.85153033 30.51673063 -57.36633804 45.58112124 -60.9675293 60.49926758 C-64.92685068 80.16777182 -62.15311052 97.94343741 -51.25 114.6875 C-41.7599627 124.44114945 -28.36496697 127.92344747 -15.0625 128.125 C-10.63524986 128.08432083 -6.3772809 127.64848606 -2 127 C-2.51755404 135.44430279 -3.4560881 143.68086307 -5 152 C-19.74978905 157.27226502 -33.48268565 154.75800085 -47.42114258 148.16259766 C-64.09515915 139.84027582 -76.19494471 127.76393254 -82.71582031 110.05615234 C-91.77113719 82.7163285 -88.84560263 47.60714501 -76.25 21.75 C-70.18204525 9.85584731 -61.18001895 -2.69114765 -48 -7 C-31.8054157 -10.71290469 -15.27291169 -5.04551547 0 0 Z " fill="#E85498" transform="translate(444,757)"/>
<path d="M0 0 C2.99698562 2.20186699 3.7796396 2.94519507 5.0625 6.25 C5.36547852 8.44482422 5.36547852 8.44482422 5.44140625 10.8046875 C5.47556641 11.66707031 5.50972656 12.52945313 5.54492188 13.41796875 C5.57134766 14.31128906 5.59777344 15.20460938 5.625 16.125 C5.90076929 24.22961276 5.90076929 24.22961276 7.0625 32.25 C10.31285278 31.7941467 13.56275595 31.33517232 16.8125 30.875 C17.77373779 30.73924561 18.73497559 30.60349121 19.7253418 30.46362305 C24.7917858 29.74130985 29.83705369 28.96608005 34.875 28.0625 C46.14402526 26.16286431 46.14402526 26.16286431 49.9375 28.3125 C53.25919067 34.03318949 53.41879655 38.99016977 52.0625 45.25 C50.31429164 47.75576532 49.30693096 48.2013195 46.27734375 48.8046875 C45.19582031 48.91039062 44.11429688 49.01609375 43 49.125 C36.09130778 50.07340306 29.5459599 51.62177294 24.55859375 56.81640625 C21.55891426 61.32115141 21.08356174 66.06837852 22.0625 71.25 C26.19280237 82.45598431 32.78317254 88.58062162 43.0625 94.25 C45.7145803 95.43054985 48.29348962 96.36182686 51.0625 97.25 C50.5675 99.23 50.5675 99.23 50.0625 101.25 C31.83800528 106.15303665 14.53792137 107.75102058 -2.60546875 98.296875 C-15.92101778 90.11710045 -24.00159489 77.40227094 -29.9375 63.25 C-30.6328125 59.828125 -30.6328125 59.828125 -30.9375 57.25 C-31.845 57.0025 -32.7525 56.755 -33.6875 56.5 C-37.08771739 55.19222408 -38.65419612 54.04070474 -40.9375 51.25 C-42.0952506 47.77674819 -42.00616652 44.88932552 -41.9375 41.25 C-41.14085937 41.15203125 -40.34421875 41.0540625 -39.5234375 40.953125 C-33.32764878 40.07878012 -28.71562219 39.39942191 -23.9375 35.25 C-21.87237518 32.15231277 -21.6634369 31.40024391 -21.6875 27.875 C-21.68234375 27.12476563 -21.6771875 26.37453125 -21.671875 25.6015625 C-21.84006226 23.17828908 -21.84006226 23.17828908 -22.921875 20.796875 C-24.69809919 16.34265127 -24.71091356 11.95100937 -23.9375 7.25 C-21.91659455 3.44474995 -19.25122486 1.06663978 -15.625 -1.1875 C-10.11183897 -2.34141742 -5.09592828 -2.70222501 0 0 Z " fill="#F29223" transform="translate(797.9375,549.75)"/>
<path d="M0 0 C-0.0817882 3.81331844 -0.19454615 7.6251424 -0.3125 11.4375 C-0.33505859 12.50677734 -0.35761719 13.57605469 -0.38085938 14.67773438 C-0.60589715 21.36749371 -1.55330188 26.76190372 -4 33 C-4.6086792 32.61577881 -5.2173584 32.23155762 -5.84448242 31.83569336 C-11.19127009 28.52248967 -14.72060013 27.07353117 -21 28 C-29.57236226 31.84881571 -33.98642883 41.07626762 -37.25 49.4375 C-44.93911532 70.65905702 -43.66009798 93.31581818 -42.36083984 115.5012207 C-41.98626918 122.21012174 -41.88737924 128.90616883 -41.875 135.625 C-41.87048828 136.60871582 -41.86597656 137.59243164 -41.86132812 138.60595703 C-41.89435979 154.78871958 -41.89435979 154.78871958 -44 159 C-60.4870858 158.2810143 -60.4870858 158.2810143 -65.64784241 153.4609375 C-67.70589964 149.71525707 -67.47931685 146.14932353 -67.50952148 141.9375 C-67.52734995 141.01983856 -67.54517841 140.10217712 -67.56354713 139.15670776 C-67.6184113 136.10451289 -67.65142464 133.05251243 -67.68359375 130 C-67.71634758 127.84259822 -67.74992678 125.68520883 -67.7842865 123.52783203 C-68.12485029 100.44517949 -68.11702785 77.35956687 -68.06866455 54.27502441 C-68.05813449 48.68074959 -68.05380584 43.08646953 -68.04882812 37.4921875 C-68.03834072 26.66144561 -68.0214517 15.83072537 -68 5 C-66.10500216 4.3388928 -64.20733634 3.68543016 -62.30859375 3.03515625 C-60.72389282 2.48807007 -60.72389282 2.48807007 -59.10717773 1.92993164 C-54.95819398 0.6882031 -51.26091226 0.06765315 -47 1 C-44 2.625 -44 2.625 -42 6 C-41.29709625 10.66664669 -41.07018735 15.28468643 -41 20 C-40.6596875 19.50371094 -40.319375 19.00742187 -39.96875 18.49609375 C-32.14414808 7.529165 -14.73439814 -7.36719907 0 0 Z " fill="#81549D" transform="translate(488,516)"/>
<path d="M0 0 C0.61359375 0.41894531 1.2271875 0.83789062 1.859375 1.26953125 C9.84785866 7.40228309 15.25194548 17.42448084 18 27 C18 28.32 18 29.64 18 31 C11.25514216 32.81263192 4.54780208 33.87541682 -2.37304688 34.76757812 C-3.59024414 34.94256836 -3.59024414 34.94256836 -4.83203125 35.12109375 C-5.92608276 35.26695923 -5.92608276 35.26695923 -7.04223633 35.41577148 C-9.42622263 36.12719176 -10.44272525 37.08514207 -12 39 C-14.3468573 46.9856151 -12.13614054 53.98899137 -8.375 61.0625 C-6.20175904 65.25466894 -5.24785211 68.20505718 -6 73 C-7.82098046 77.1211663 -10.33391323 79.43373926 -14 82 C-18.06779694 83.35593231 -21.74668259 83.53075585 -26 83 C-31.11762818 80.34641502 -34.17705942 77.46882174 -36 72 C-35.99275941 68.7127741 -35.92606641 65.44006931 -35.78515625 62.15625 C-35.67870737 57.00799502 -36.5777839 53.56891947 -39 49 C-42.68855201 46.04915839 -45.58124645 45.84049865 -50.125 46.1875 C-55.14024531 46.80244834 -60.11406669 47.65832477 -65.078125 48.59765625 C-68 49 -68 49 -75 49 C-75.99 43.06 -76.98 37.12 -78 31 C-75.56625 30.29875 -73.1325 29.5975 -70.625 28.875 C-62.80454491 26.49075364 -54.38732321 23.81874493 -49.4375 16.875 C-45.79494835 9.5898967 -46.66871463 1.82130152 -48 -6 C-31.79597973 -9.77307748 -14.12803625 -9.70607215 0 0 Z " fill="#F29223" transform="translate(1050,495)"/>
<path d="M0 0 C0.77214844 -0.00515625 1.54429687 -0.0103125 2.33984375 -0.015625 C6.03769001 0.34514049 9.46312207 1.32577648 13.0625 2.25 C13.09323329 14.60415614 13.11352373 26.95831106 13.125 39.3125 C13.12585602 40.22747631 13.12671204 41.14245262 13.12759399 42.08515549 C13.15408777 74.1520353 12.84446302 106.19159592 12.0625 138.25 C10.6240277 138.58103579 9.18484181 138.90897176 7.74536133 139.2355957 C6.94399246 139.41854691 6.1426236 139.60149811 5.31697083 139.78999329 C2.75805191 140.31212019 0.35994015 140.48448747 -2.25 140.4375 C-3.05050781 140.43105469 -3.85101563 140.42460938 -4.67578125 140.41796875 C-6.87602824 140.25456526 -8.80992296 139.81032996 -10.9375 139.25 C-10.93527939 138.43965302 -10.93305878 137.62930603 -10.93077087 136.79440308 C-10.91039297 129.00419259 -10.89534059 121.21399574 -10.88568783 113.42376518 C-10.88055787 109.4226349 -10.87365042 105.42152735 -10.86206055 101.42041016 C-10.81319929 84.09714156 -10.92262435 66.81544225 -11.57821655 49.50274658 C-11.96162963 39.28820429 -12.05740556 29.09535572 -12 18.875 C-11.99494644 17.22916812 -11.99039071 15.58333463 -11.98632812 13.9375 C-11.97569213 10.04162419 -11.95866946 6.14583219 -11.9375 2.25 C-4.2049024 -0.02798604 -4.2049024 -0.02798604 0 0 Z " fill="#E85498" transform="translate(470.9375,770.75)"/>
<path d="M0 0 C0.93776779 -0.00571014 1.87553558 -0.01142029 2.84172058 -0.01730347 C3.86362488 -0.01842133 4.88552917 -0.01953918 5.93840027 -0.02069092 C7.56101021 -0.02813828 7.56101021 -0.02813828 9.21640015 -0.03573608 C12.7971612 -0.05034833 16.37787796 -0.05715805 19.95866394 -0.06268311 C22.44724529 -0.06843516 24.93582663 -0.07419289 27.42440796 -0.07995605 C32.64391791 -0.09046326 37.86341248 -0.09630783 43.08293152 -0.09979248 C48.44009018 -0.10355801 53.79711134 -0.11764635 59.15422058 -0.14080811 C65.62329309 -0.16834614 72.09223181 -0.18120114 78.56136131 -0.18312836 C81.02569886 -0.18615397 83.49003557 -0.19417939 85.95433998 -0.20731354 C89.40361109 -0.22438556 92.85238519 -0.22249069 96.30168152 -0.21600342 C97.82542892 -0.22982559 97.82542892 -0.22982559 99.37995911 -0.243927 C105.11683908 -0.21016179 109.29029324 0.27170508 114.31413269 3.14044189 C117.08631619 7.55860934 117.84565862 11.22393243 116.96257019 16.27716064 C115.86626313 19.42739238 113.88327749 21.12182813 111.31413269 23.14044189 C108.45766542 24.09259765 106.67427273 24.2701514 103.71055603 24.28088379 C102.29334511 24.28944901 102.29334511 24.28944901 100.84750366 24.29818726 C99.81265335 24.29930511 98.77780304 24.30042297 97.71159363 24.30157471 C96.62024612 24.30653961 95.52889862 24.31150452 94.40447998 24.31661987 C90.78581618 24.33125189 87.16719624 24.33804559 83.54850769 24.34356689 C81.03607685 24.3493179 78.52364602 24.35507564 76.01121521 24.36083984 C71.41282147 24.37000881 66.81444031 24.37630763 62.21603847 24.3793366 C55.45760986 24.38381325 48.69938391 24.40134358 41.94101691 24.43033719 C36.08001232 24.45460424 30.21907503 24.46228318 24.3580246 24.46401215 C21.86856738 24.46703825 19.37911101 24.4750653 16.88968658 24.48819733 C13.40438536 24.50526882 9.91957605 24.50337445 6.43424988 24.49688721 C5.40749649 24.50610199 4.3807431 24.51531677 3.32287598 24.52481079 C-2.45007244 24.49118368 -6.61310467 23.98290085 -11.68586731 21.14044189 C-14.3566193 17.63507991 -14.91469557 14.87562261 -14.68586731 10.57794189 C-13.99754704 6.09251421 -12.3772857 3.88754395 -8.68586731 1.14044189 C-5.7567771 0.17784311 -3.07102717 0.01123445 0 0 Z " fill="#81CBCF" transform="translate(865.6858673095703,931.8595581054688)"/>
<path d="M0 0 C7.18466712 3.35963179 10.9230448 9.84133827 13.6796875 17.02734375 C16.50576934 26.4313747 17.36005066 36.91320111 12.9296875 45.90234375 C9.41262502 51.3641349 5.34205568 54.90788956 -1.1328125 56.3671875 C-9.31456348 57.63138166 -16.38706829 56.04592925 -23.22265625 51.37109375 C-29.35967318 46.4926194 -33.25713004 40.56253031 -35.0703125 32.90234375 C-36.19183692 22.28219411 -34.83977637 14.18478354 -29.3828125 5.08984375 C-20.73700638 -3.0886215 -10.99996475 -4.24731735 0 0 Z " fill="#E85498" transform="translate(482.0703125,698.09765625)"/>
<path d="M0 0 C0.82293045 -0.00563965 1.6458609 -0.0112793 2.49372864 -0.01708984 C3.39303101 -0.01304138 4.29233337 -0.00899292 5.21888733 -0.00482178 C6.16875015 -0.00832642 7.11861298 -0.01183105 8.09725952 -0.01544189 C11.24342617 -0.02425868 14.3893687 -0.01840972 17.53553772 -0.01165771 C19.71885217 -0.01300449 21.90216632 -0.01494513 24.08547974 -0.01745605 C28.66448315 -0.02040734 33.2434086 -0.0161099 37.82240295 -0.0067749 C43.69492019 0.00461284 49.56725448 -0.00193558 55.43976498 -0.01391983 C59.94957866 -0.02114402 64.45934891 -0.01884779 68.96916389 -0.01366425 C71.13453251 -0.01232895 73.29990506 -0.01397127 75.46526909 -0.01862335 C78.49132108 -0.02369694 81.51707622 -0.01596614 84.54310608 -0.00482178 C85.88902328 -0.01089447 85.88902328 -0.01089447 87.26213074 -0.01708984 C88.08788101 -0.0114502 88.91363129 -0.00581055 89.7644043 0 C90.8370574 0.00113108 90.8370574 0.00113108 91.93138027 0.002285 C94.3036899 0.29869777 95.9008013 1.03196958 97.94569397 2.25396729 C100.24984229 5.2493601 100.42268533 8.56320815 100.33241272 12.28521729 C99.65931872 15.71187767 97.64488563 17.22957354 94.94569397 19.25396729 C90.78097126 20.594143 86.5647416 20.40160422 82.23329163 20.39923096 C81.35477036 20.40258957 80.47624908 20.40594818 79.57110596 20.40940857 C76.6673084 20.41890633 73.76356859 20.4208611 70.85975647 20.42193604 C68.83960445 20.42514943 66.81945267 20.42851357 64.79930115 20.43202209 C60.5642391 20.43801042 56.32919745 20.4398623 52.09413147 20.43927002 C46.67137149 20.43916841 41.2487425 20.45282029 35.82601357 20.47004223 C31.65325827 20.48116881 27.48053457 20.48318902 23.30776596 20.48266029 C21.30872013 20.48383943 19.30967346 20.48825746 17.31064224 20.49599266 C14.51263035 20.50580571 11.71490197 20.50290926 8.91688538 20.49688721 C7.68229332 20.50531647 7.68229332 20.50531647 6.42276001 20.51391602 C1.19755505 20.48538395 -3.31242786 19.9558227 -7.86680603 17.12896729 C-9.80667401 14.06601784 -10.17919798 10.80644937 -10.05430603 7.25396729 C-7.95152768 2.41757707 -5.35480764 0.00564944 0 0 Z " fill="#81CBCF" transform="translate(872.0543060302734,966.7460327148438)"/>
<path d="M0 0 C1.56237396 -0.02409439 1.56237396 -0.02409439 3.15631104 -0.04867554 C7.92695508 -0.0930993 12.69745919 -0.13419725 17.46826172 -0.15722656 C19.98430636 -0.17378162 22.50030406 -0.2010653 25.01611328 -0.23925781 C28.64217554 -0.29403217 32.26713438 -0.31590348 35.89355469 -0.33056641 C37.01562317 -0.35323578 38.13769165 -0.37590515 39.29376221 -0.39926147 C48.01246495 -0.37569021 48.01246495 -0.37569021 51.69726562 2.53808594 C55.26051396 6.64087738 55.36903866 9.88429105 55.00292969 15.19287109 C53.5961106 18.8340499 52.46757838 19.94047545 49.02441406 21.81079102 C44.32302427 23.71736319 39.73207447 23.60597192 34.72167969 23.55615234 C33.74936401 23.55665085 32.77704834 23.55714935 31.77526855 23.55766296 C29.72792508 23.55533168 27.68057823 23.54565925 25.63330078 23.52905273 C22.51275805 23.50544545 19.39307045 23.50850131 16.27246094 23.51513672 C14.27636213 23.50955951 12.2802669 23.50244937 10.28417969 23.49365234 C8.89483215 23.49501945 8.89483215 23.49501945 7.47741699 23.49641418 C1.27070925 23.42901653 -4.44998671 23.28278585 -9.43457031 19.19287109 C-11.69115141 14.8602354 -11.79920634 10.98209505 -10.99707031 6.19287109 C-7.90715556 1.14601033 -5.71891082 0.08002991 0 0 Z " fill="#81CBCF" transform="translate(894.9970703125,997.80712890625)"/>
<path d="M0 0 C3.40432151 2.65537078 4.62150515 4.05637782 5.43359375 8.2265625 C5.64567663 12.06976134 5.55917684 14.16005858 3.375 17.44091797 C0.58631671 20.44574715 -1.79969238 21.59866752 -5.56640625 23.19140625 C-6.2005394 23.4633934 -6.83467255 23.73538055 -7.48802185 24.01560974 C-9.50758678 24.87764314 -11.53475318 25.71992248 -13.5625 26.5625 C-14.89699903 27.13095477 -16.23098878 27.7006067 -17.56445312 28.27148438 C-40.7259374 38.12933127 -40.7259374 38.12933127 -47 37 C-50.39426783 34.51087026 -51.79328689 32.46510449 -53.5 28.625 C-54.1308232 24.05153183 -53.17555716 22.03384556 -51 18 C-48.59375 16.171875 -48.59375 16.171875 -45.5 14.75 C-44.91831055 14.4811499 -44.33662109 14.2122998 -43.73730469 13.93530273 C-41.50459587 12.92483335 -39.2532675 11.96378318 -37 11 C-35.96423828 10.54447754 -34.92847656 10.08895508 -33.86132812 9.61962891 C-30.33462399 8.07506868 -26.79517106 6.56415376 -23.25 5.0625 C-21.52813477 4.31661621 -21.52813477 4.31661621 -19.77148438 3.55566406 C-13.28511248 0.87830258 -7.08634594 -1.45448488 0 0 Z " fill="#81CBCF" transform="translate(1149,501)"/>
<path d="M0 0 C3.21797321 2.06351835 5.78586935 4.65253607 8.43652344 7.39404297 C10.24499932 9.25165608 12.09305343 11.06496067 13.9453125 12.87890625 C34.96011188 33.5668249 34.96011188 33.5668249 35.0625 39.8125 C34.382668 44.13943072 32.41259022 46.16789419 29.1796875 48.96875 C25.84059826 50.54853416 23.65938849 50.50899819 20 50 C17.28595552 48.41755382 15.09456859 46.39610916 12.8125 44.25 C12.16394043 43.66162354 11.51538086 43.07324707 10.84716797 42.46704102 C8.87791922 40.66507462 6.9363546 38.83720844 5 37 C4.43490723 36.47196777 3.86981445 35.94393555 3.28759766 35.39990234 C-15.40999326 17.84648391 -15.40999326 17.84648391 -16.3828125 9.85546875 C-15.80028201 5.51026683 -14.02553276 4.09756925 -11 1 C-7.34275121 -0.8286244 -3.96758452 -0.89255368 0 0 Z " fill="#81CBCF" transform="translate(721,416)"/>
<path d="M0 0 C3.39890142 2.06889652 5.88937011 4.11279537 7 8 C6.80613235 14.58342221 4.39962701 17.63943161 0.125 22.25 C-0.75357666 23.2256189 -0.75357666 23.2256189 -1.64990234 24.22094727 C-3.41506129 26.16510758 -5.20263902 28.08561806 -7 30 C-7.49951172 30.53802246 -7.99902344 31.07604492 -8.51367188 31.63037109 C-24.98850533 49.2534159 -24.98850533 49.2534159 -33.875 49.8125 C-37.16887304 49.4760291 -38.16585974 48.88251602 -41 46.875 C-43.22054675 43.68296405 -43.91932039 41.87262117 -44 38 C-42.68644211 33.45600613 -40.02395351 30.52274006 -36.8125 27.1875 C-35.80904863 26.12319395 -34.80644334 25.05808958 -33.8046875 23.9921875 C-33.31967773 23.47881836 -32.83466797 22.96544922 -32.33496094 22.43652344 C-30.64021282 20.61284057 -29.03786069 18.71914981 -27.4375 16.8125 C-23.35259913 12.10897231 -18.74783213 8.02104252 -14 4 C-13.44183594 3.51917969 -12.88367187 3.03835938 -12.30859375 2.54296875 C-8.20167699 -0.62394526 -4.96696371 -0.63072555 0 0 Z " fill="#81CBCF" transform="translate(1091,416)"/>
<path d="M0 0 C4.63413099 3.52117199 6.46711167 8.76134451 8.75 13.9375 C9.39545776 15.38576172 9.39545776 15.38576172 10.05395508 16.86328125 C13.06093489 23.68951881 15.94897636 30.56170713 18.6875 37.5 C19.03844727 38.36488037 19.38939453 39.22976074 19.75097656 40.12084961 C21.5362124 44.77652772 22.59240904 48.05829871 21 53 C18.92564818 55.91705724 17.30495423 57.59338383 13.84375 58.671875 C10.01188967 59.31051839 7.99208392 59.56556595 4.51953125 57.5859375 C1.03140307 54.00587416 -0.7554496 50.0810239 -2.8125 45.5625 C-3.23829346 44.6432373 -3.66408691 43.72397461 -4.1027832 42.77685547 C-7.13484281 36.13014725 -9.99574088 29.41646874 -12.6875 22.625 C-13.03852783 21.76463135 -13.38955566 20.9042627 -13.7512207 20.01782227 C-15.69050529 14.94711498 -16.43988352 11.42195373 -15 6 C-11.22352228 -0.0693392 -6.93536058 -2.06585209 0 0 Z " fill="#81CBCF" transform="translate(806,359)"/>
<path d="M0 0 C5.77277383 0.87795336 11.07048298 3.26429819 16.43896484 5.48095703 C17.69194653 5.98875561 18.94512136 6.49607788 20.19848633 7.00292969 C44.8086693 17.02753741 44.8086693 17.02753741 47.75146484 23.41845703 C47.75146484 29.4990763 45.82670645 32.24381929 41.75146484 36.41845703 C37.74946456 38.41945717 32.64634139 36.99263237 28.50717163 35.73840332 C26.21095351 34.88041203 23.95565659 33.9577118 21.70068359 32.99658203 C20.87945511 32.65471863 20.05822662 32.31285522 19.21211243 31.96063232 C17.49122559 31.24022442 15.77282937 30.51384016 14.05688477 29.78173828 C11.43608667 28.66723308 8.80475015 27.58100908 6.17138672 26.49658203 C4.49294795 25.78991943 2.81518823 25.08164132 1.13818359 24.37158203 C0.35585861 24.05054504 -0.42646637 23.72950806 -1.23249817 23.39874268 C-5.737558 21.44796328 -8.54928014 19.7046249 -11.24853516 15.41845703 C-12.46263287 11.61428419 -12.46568886 9.97219898 -10.99853516 6.23095703 C-7.9044418 1.258307 -6.13356448 -0.216887 0 0 Z " fill="#81CBCF" transform="translate(660.24853515625,500.58154296875)"/>
<path d="M0 0 C0.94455551 -0.00945648 1.88911102 -0.01891296 2.86228943 -0.02865601 C4.38270592 -0.01954697 4.38270592 -0.01954697 5.93383789 -0.01025391 C7.50567589 -0.01455917 7.50567589 -0.01455917 9.10926819 -0.01895142 C11.32415304 -0.02099179 13.53905592 -0.01546385 15.75390625 -0.00292969 C19.14046661 0.01310769 22.52583056 -0.00277161 25.91235352 -0.02197266 C28.06535094 -0.01998991 30.21834762 -0.01614557 32.37133789 -0.01025391 C33.38292465 -0.0163266 34.39451141 -0.02239929 35.43675232 -0.02865601 C44.32144921 0.05999789 44.32144921 0.05999789 48.21899414 3.38818359 C50.29223552 6.49804566 50.492916 7.27926746 50.46899414 10.82568359 C50.47672852 11.9684375 50.47672852 11.9684375 50.48461914 13.13427734 C50.18565433 15.67108168 49.58886547 17.23748561 48.21899414 19.38818359 C42.90580737 22.93030811 37.44645512 22.54780059 31.26196289 22.55615234 C30.40016922 22.55948074 29.53837555 22.56280914 28.65046692 22.5662384 C26.83078544 22.5712895 25.01109474 22.57364729 23.19140625 22.57348633 C20.42635595 22.57566792 17.66170807 22.59382945 14.89672852 22.61279297 C13.12264133 22.61572836 11.34855226 22.61771218 9.57446289 22.61865234 C8.34749947 22.62943062 8.34749947 22.62943062 7.0957489 22.64042664 C-5.34148145 22.59162499 -5.34148145 22.59162499 -9.71850586 18.63818359 C-11.82381504 14.1798818 -12.12156517 11.44570988 -10.59350586 6.70068359 C-7.92947753 1.83194216 -5.57067938 0.01604339 0 0 Z " fill="#81CBCF" transform="translate(1123.781005859375,600.61181640625)"/>
<path d="M0 0 C3.89349677 2.45146093 5.70232348 3.76177963 6.79077148 8.28930664 C7.01683026 12.29848676 6.45787382 14.54501113 4.97265625 18.24609375 C4.28441772 19.98644897 4.28441772 19.98644897 3.58227539 21.76196289 C3.08074951 22.97489014 2.57922363 24.18781738 2.0625 25.4375 C1.55345541 26.69437782 1.04491278 27.95145906 0.53686523 29.20874023 C-2.26289492 36.07945152 -5.17311405 42.89847896 -8.4375 49.5625 C-8.74228271 50.19148193 -9.04706543 50.82046387 -9.36108398 51.46850586 C-11.08230772 54.819313 -12.63498486 57.21213617 -16 59 C-20.382773 59.42438823 -24.01834593 58.7607819 -27.5 56.0625 C-30.36251493 52.12654197 -30.59691993 48.75297495 -30 44 C-28.77275667 39.72234897 -27.15785933 35.62711355 -25.5 31.5 C-25.04729736 30.35394287 -24.59459473 29.20788574 -24.12817383 28.02709961 C-21.49502863 21.45603095 -18.77109162 14.93606536 -15.6875 8.5625 C-15.38714844 7.92570312 -15.08679688 7.28890625 -14.77734375 6.6328125 C-11.35441073 -0.1079635 -7.27214938 -2.04130509 0 0 Z " fill="#81CBCF" transform="translate(1006,359)"/>
<path d="M0 0 C0.92453476 -0.00953201 1.84906952 -0.01906403 2.80162048 -0.02888489 C4.2892263 -0.02751778 4.2892263 -0.02751778 5.80688477 -0.02612305 C6.83258072 -0.03040817 7.85827667 -0.0346933 8.91505432 -0.03910828 C11.08284772 -0.04484762 13.25066038 -0.04535475 15.41845703 -0.04101562 C18.73251245 -0.03785684 22.04567414 -0.06131626 25.35961914 -0.08666992 C27.46703989 -0.08894308 29.57446304 -0.08964633 31.68188477 -0.08862305 C32.67159775 -0.09783279 33.66131073 -0.10704254 34.68101501 -0.11653137 C43.3108961 -0.05858756 43.3108961 -0.05858756 47.31079102 3.2746582 C49.99348087 7.26199966 50.13873922 11.62986876 49.31079102 16.2746582 C46.78110627 19.55641138 45.2334777 20.96709597 41.31079102 22.2746582 C39.8545474 22.37546723 38.39424233 22.4229252 36.93457031 22.43579102 C35.61255867 22.45020233 35.61255867 22.45020233 34.26383972 22.46490479 C32.83881889 22.4712796 32.83881889 22.4712796 31.38500977 22.4777832 C30.40466263 22.48348328 29.42431549 22.48918335 28.41426086 22.49505615 C26.33884764 22.50450424 24.26341943 22.51103938 22.18798828 22.51489258 C19.02097218 22.52458876 15.85460767 22.55561034 12.68774414 22.5871582 C10.67016986 22.59368942 8.65259095 22.59893942 6.63500977 22.6027832 C5.69106857 22.61513 4.74712738 22.62747681 3.77458191 22.64019775 C-1.47519327 22.62251125 -5.14949793 22.22272304 -9.68920898 19.2746582 C-12.11218249 16.3010089 -12.04816416 13.00025364 -11.94311523 9.23950195 C-11.5656343 6.31838028 -10.54779526 4.53151297 -8.68920898 2.2746582 C-5.71597378 0.44837396 -3.46485848 0.01968462 0 0 Z " fill="#81CBCF" transform="translate(640.689208984375,600.725341796875)"/>
<path d="M0 0 C3.85895426 1.6778062 5.4431225 3.14556168 7 7 C7.26069641 9.26963806 7.26069641 9.26963806 7.2746582 11.78100586 C7.28895622 13.19783913 7.28895622 13.19783913 7.30354309 14.64329529 C7.30263168 15.65690628 7.30172028 16.67051727 7.30078125 17.71484375 C7.30506638 18.76273575 7.3093515 19.81062775 7.31376648 20.89027405 C7.31950628 23.10514606 7.32001262 25.32003691 7.31567383 27.53491211 C7.31251503 30.92138875 7.33597405 34.3069908 7.36132812 37.69335938 C7.36360128 39.84635307 7.36430454 41.9993491 7.36328125 44.15234375 C7.372491 45.16393051 7.38170074 46.17551727 7.39118958 47.21775818 C7.33347022 55.99973316 7.33347022 55.99973316 4 60 C0.57823311 62.56632517 -2.84640421 62.36435051 -7 62 C-10.5386994 60.34860695 -11.81070153 59.28394771 -14 56 C-14.26742554 53.77468872 -14.26742554 53.77468872 -14.29052734 51.14892578 C-14.30328705 50.16425323 -14.31604675 49.17958069 -14.32919312 48.16506958 C-14.33141876 47.10254974 -14.33364441 46.04002991 -14.3359375 44.9453125 C-14.3425943 43.85161346 -14.3492511 42.75791443 -14.35610962 41.631073 C-14.36624039 39.31607751 -14.37092651 37.00105279 -14.37060547 34.68603516 C-14.37497449 31.14566836 -14.41127982 27.60655206 -14.44921875 24.06640625 C-14.45508761 21.8177126 -14.45905654 19.56901302 -14.4609375 17.3203125 C-14.47530853 16.26184113 -14.48967957 15.20336975 -14.50448608 14.11282349 C-14.45881756 6.7579492 -14.45881756 6.7579492 -12.09619141 2.85498047 C-8.35002597 -0.46010979 -4.84435734 -0.52069868 0 0 Z " fill="#81CBCF" transform="translate(905,339)"/>
<path d="M0 0 C9.480478 -0.4034246 17.33964074 -0.41914627 25.06640625 5.61328125 C28.65394676 8.99111167 31.1692874 12.36937402 33 17 C33 17.66 33 18.32 33 19 C29.66749315 19.65014606 26.33385757 20.2943192 23 20.9375 C22.06542969 21.11990234 21.13085938 21.30230469 20.16796875 21.49023438 C19.24628906 21.66748047 18.32460938 21.84472656 17.375 22.02734375 C16.11816406 22.27085571 16.11816406 22.27085571 14.8359375 22.51928711 C11.24166262 23.12854393 7.61739467 23.54782567 4 24 C2.68 16.08 1.36 8.16 0 0 Z " fill="#94C11F" transform="translate(961,458)"/>
</svg>
