<?xml version="1.0" encoding="UTF-8"?>
<svg version="1.1" xmlns="http://www.w3.org/2000/svg" width="960" height="960">
<path d="M0 0 C316.8 0 633.6 0 960 0 C960 316.8 960 633.6 960 960 C643.2 960 326.4 960 0 960 C0 643.2 0 326.4 0 0 Z " fill="#3B579D" transform="translate(0,0)"/>
<path d="M0 0 C1.90517899 0.00256805 1.90517899 0.00256805 3.84884644 0.00518799 C24.40715575 0.05209672 44.86644854 0.91734644 65.375 2.3125 C66.6588559 2.39936066 67.94271179 2.48622131 69.26547241 2.57571411 C72.91875898 2.82867219 76.57082035 3.09413889 80.22265625 3.3671875 C81.28785492 3.44439529 82.35305359 3.52160309 83.45053101 3.60115051 C84.9640062 3.72099556 84.9640062 3.72099556 86.50805664 3.84326172 C87.36855118 3.90988007 88.22904572 3.97649841 89.11561584 4.0451355 C93.87888944 4.62974832 98.59089328 5.57902605 103.3125 6.4375 C103.3125 49.0075 103.3125 91.5775 103.3125 135.4375 C57.9375 135.6875 57.9375 135.6875 43.72119141 135.73535156 C39.43837807 135.76865652 39.43837807 135.76865652 35.15560913 135.80706787 C33.27894121 135.82148208 31.40220536 135.82844571 29.52548218 135.82904053 C9.25630247 135.84642713 -13.28494738 137.65697354 -28.6875 152.4375 C-45.18567883 170.6051374 -43.98531892 194.09631593 -44.1015625 217.1875 C-44.11854009 219.2760487 -44.13636131 221.36459072 -44.1550293 223.453125 C-44.21769392 231.11450687 -44.26415749 238.77601437 -44.3125 246.4375 C-44.43625 263.5975 -44.56 280.7575 -44.6875 298.4375 C2.5025 298.4375 49.6925 298.4375 98.3125 298.4375 C97.6525 303.3875 96.9925 308.3375 96.3125 313.4375 C96.16526921 316.10213598 96.05370237 318.76933999 96 321.4375 C95.65236321 330.41294094 94.1597768 339.15138032 92.66195679 347.9961853 C90.93439092 358.22348038 89.50017097 368.44630138 88.3125 378.75 C86.80594534 391.81083491 85.002332 404.80580354 82.97460938 417.79614258 C82.81994453 418.80742722 82.81994453 418.80742722 82.66215515 419.83914185 C82.38612248 421.6436489 82.10409744 423.44723659 81.8215332 425.25073242 C81.08734904 431.28935311 80.74590211 437.36987041 80.3125 443.4375 C39.0625 443.4375 -2.1875 443.4375 -44.6875 443.4375 C-44.6875 566.1975 -44.6875 688.9575 -44.6875 815.4375 C-94.1875 815.4375 -143.6875 815.4375 -194.6875 815.4375 C-194.6875 692.6775 -194.6875 569.9175 -194.6875 443.4375 C-236.2675 443.4375 -277.8475 443.4375 -320.6875 443.4375 C-320.6875 395.5875 -320.6875 347.7375 -320.6875 298.4375 C-279.1075 298.4375 -237.5275 298.4375 -194.6875 298.4375 C-194.84509647 258.69605454 -194.84509647 258.69605454 -195.04785156 218.95483398 C-195.06591797 211.16027832 -195.06591797 211.16027832 -195.0692749 207.47840881 C-195.07530268 204.97890855 -195.0891224 202.47941771 -195.10980225 199.97999573 C-195.26314868 180.41883806 -193.62186965 161.7422548 -190.6875 142.4375 C-190.5567231 141.55203428 -190.4259462 140.66656857 -190.29120636 139.75427055 C-188.27624116 126.15151321 -184.05483915 112.72763378 -177.69628906 100.51196289 C-176.58465997 98.22602087 -175.69088614 95.90498296 -174.79296875 93.52734375 C-172.74211516 88.29981485 -170.04296426 83.70577031 -167 79 C-166.46963135 78.17234131 -165.9392627 77.34468262 -165.39282227 76.49194336 C-161.22215646 70.07403505 -156.78953603 64.15423916 -151.6875 58.4375 C-150.82511719 57.44363281 -149.96273437 56.44976562 -149.07421875 55.42578125 C-143.15951934 48.70155749 -136.8338701 42.8525826 -129.6875 37.4375 C-128.20443359 36.27154297 -128.20443359 36.27154297 -126.69140625 35.08203125 C-111.25404049 23.25595292 -93.40781882 14.56867172 -74.6875 9.4375 C-73.33301758 9.05537354 -73.33301758 9.05537354 -71.95117188 8.66552734 C-68.97367259 7.83505133 -65.98935929 7.03666074 -63 6.25 C-62.11771729 6.01168457 -61.23543457 5.77336914 -60.32641602 5.52783203 C-40.48970247 0.55513139 -20.34390817 -0.09748812 0 0 Z " fill="#FEFEFE" transform="translate(707.6875,144.5625)"/>
<path d="M0 0 C0.33 0 0.66 0 1 0 C1 15.18 1 30.36 1 46 C-14.18 46 -29.36 46 -45 46 C-45 45.67 -45 45.34 -45 45 C-43.92685547 44.79697266 -43.92685547 44.79697266 -42.83203125 44.58984375 C-29.68899886 41.75040467 -18.25878581 35.83350098 -10 25 C-5.15776542 17.26455553 -1.29749734 9.08248136 0 0 Z " fill="#FEFEFE" transform="translate(959,914)"/>
<path d="M0 0 C0.33 0 0.66 0 1 0 C1.13535156 0.71542969 1.27070313 1.43085937 1.41015625 2.16796875 C4.6465385 17.14834887 12.13284223 29.21611257 24.9375 37.875 C31.34916274 41.54252311 38.64495292 44.20485978 46 45 C46 45.33 46 45.66 46 46 C30.82 46 15.64 46 0 46 C0 30.82 0 15.64 0 0 Z " fill="#FEFEFE" transform="translate(0,914)"/>
<path d="M0 0 C15.18 0 30.36 0 46 0 C46 15.18 46 30.36 46 46 C45.67 46 45.34 46 45 46 C44.84144531 45.24976563 44.68289063 44.49953125 44.51953125 43.7265625 C41.21338682 29.22336537 34.53323092 17.99188472 22.16015625 9.30859375 C15.13859564 5.05502629 8.05406299 2.45237201 0 1 C0 0.67 0 0.34 0 0 Z " fill="#FEFEFE" transform="translate(914,0)"/>
<path d="M0 0 C15.18 0 30.36 0 46 0 C46 0.33 46 0.66 46 1 C45.24976563 1.15855469 44.49953125 1.31710938 43.7265625 1.48046875 C28.71706273 4.90202978 17.79530845 12.01632859 8.53515625 24.47265625 C4.52240211 31.07889525 2.07526779 38.37017432 1 46 C0.67 46 0.34 46 0 46 C0 30.82 0 15.64 0 0 Z " fill="#FEFEFE" transform="translate(0,0)"/>
</svg>
